# xmcd CD database file
#
# Track frame offsets:
#	150
#	26779
#	39612
#	66987
#	84612
#	105589
#	119993
#	142194
#	161709
#	177177
#	201503
#
# Disc length: 2934 seconds
#
# Revision: 1
# Processed by: cddbd v1.4PL0 Copyright (c) Steve Scherf et al.
# Submitted via: CDex 1.40Release
#
DISCID=ac0b740b
DTITLE=Bleu Edmondson - The Band Plays On
DYEAR=2002
DGENRE=Texas Country
TTITLE0=Southland
TTITLE1=Amy
TTITLE2=The Band Plays On
TTITLE3=Little Bit Crazy
TTITLE4=Let Me Fall
TTITLE5=Gypsy Wild
TTITLE6=Good Thing
TTITLE7=To Love The Language
TTITLE8=Our World Now
TTITLE9=Goin' Home
TTITLE10=Untitled
EXTD=YEAR: 2002
EXTT0=
EXTT1=
EXTT2=
EXTT3=
EXTT4=
EXTT5=
EXTT6=
EXTT7=
EXTT8=
EXTT9=
EXTT10=
PLAYORDER=
